#!OML:ASF H:\Dans Jumps\Project 1\Capture day 1\Session 1\subject.ASF
:FULLY-SPECIFIED
:DEGREES
142
root 0.704795 17.5257 -14.0372 6.06514 -2.10285 -1.87486
lowerback -2.55582 -0.479819 0.372676
upperback 2.67813 -0.734113 1.97799
thorax 4.21551 -0.387081 1.78685
lowerneck -14.4566 0.267435 -2.20097
upperneck 25.0992 0.852716 0.320201
head 10.407 0.215356 0.598306
rclavicle -9.93923e-017 3.18055e-014
rhumerus -25.2031 -15.4914 -78.6042
rradius 24.8095
rwrist 31.8518
rhand -19.4255 -26.0173
rfingers 7.12502
rthumb 6.89438 -55.885
lclavicle -9.93923e-017 3.18055e-014
lhumerus -22.0033 -2.95906 87.6951
lradius 19.9654
lwrist 4.27982
lhand -23.7252 -3.44771
lfingers 7.12502
lthumb 2.74272 26.5144
rfemur -12.1915 -3.01249 20.1893
rtibia 20.9892
rfoot -13.7275 -1.86747
rtoes 12.8265
lfemur -11.9798 7.80371 -18.0663
ltibia 19.8359
lfoot -11.6574 6.10433
ltoes -4.01229
143
root 0.705784 17.525 -14.0438 6.08495 -2.12564 -1.88879
lowerback -2.47424 -0.474542 0.388829
upperback 2.68957 -0.726928 1.98354
thorax 4.18075 -0.383085 1.78447
lowerneck -14.467 0.274448 -2.18552
upperneck 25.0741 0.86675 0.290231
head 10.3999 0.219919 0.586776
rclavicle 1.73937e-015 7.95139e-015
rhumerus -25.1736 -15.4511 -78.6144
rradius 24.8228
rwrist 31.8218
rhand -19.4204 -26.0243
rfingers 7.12502
rthumb 6.8993 -55.8919
lclavicle 1.73937e-015 7.95139e-015
lhumerus -22.0044 -3.01399 87.6948
lradius 20.0053
lwrist 4.3361
lhand -23.7324 -3.47401
lfingers 7.12502
lthumb 2.73579 26.4882
rfemur -12.2661 -2.98171 20.2032
rtibia 21.0362
rfoot -13.7183 -1.87356
rtoes 12.8159
lfemur -12.0658 7.81208 -18.0616
ltibia 19.915
lfoot -11.6623 6.12646
ltoes -4.025
144
root 0.706735 17.5241 -14.051 6.10845 -2.14714 -1.90489
lowerback -2.38615 -0.469566 0.406942
upperback 2.69972 -0.720113 1.99038
thorax 4.14098 -0.379223 1.78232
lowerneck -14.4777 0.282545 -2.16785
upperneck 25.0475 0.882363 0.25787
head 10.3924 0.225147 0.574227
rclavicle -9.19379e-015 8.74653e-015
rhumerus -25.1479 -15.4071 -78.6212
rradius 24.8353
rwrist 31.7914
rhand -19.4123 -26.0344
rfingers 7.12502
rthumb 6.90712 -55.9017
lclavicle -9.19379e-015 8.74653e-015
lhumerus -22.0095 -3.07608 87.696
lradius 20.0483
lwrist 4.38898
lhand -23.7346 -3.48224
lfingers 7.12502
lthumb 2.73364 26.48
rfemur -12.3512 -2.95137 20.2205
rtibia 21.0914
rfoot -13.7118 -1.88087
rtoes 12.8035
lfemur -12.1651 7.82052 -18.0545
ltibia 20.0088
lfoot -11.674 6.14682
ltoes -4.02733
145
root 0.707701 17.523 -14.0589 6.13577 -2.16522 -1.92316
lowerback -2.29271 -0.466068 0.428142
upperback 2.71044 -0.715318 1.99807
thorax 4.0988 -0.376287 1.77922
lowerneck -14.4839 0.292538 -2.15231
upperneck 25.0126 0.900236 0.228333
head 10.3809 0.231639 0.563279
rclavicle -9.44227e-016 -2.38542e-015
rhumerus -25.1223 -15.3662 -78.6243
rradius 24.8459
rwrist 31.7668
rhand -19.4047 -26.0326
rfingers 7.12502
rthumb 6.91452 -55.8997
lclavicle -9.44227e-016 -2.38542e-015
lhumerus -22.0149 -3.1416 87.6967
lradius 20.0931
lwrist 4.44227
lhand -23.7272 -3.47465
lfingers 7.12502
lthumb 2.74084 26.4875
rfemur -12.4471 -2.92623 20.2409
rtibia 21.1559
rfoot -13.7086 -1.88522
rtoes 12.8047
lfemur -12.2794 7.83216 -18.0461
ltibia 20.1171
lfoot -11.6878 6.16396
ltoes -4.05294
146
root 0.708704 17.5217 -14.0675 6.16794 -2.18007 -1.94134
lowerback -2.19493 -0.464275 0.450641
upperback 2.72253 -0.712755 2.00571
thorax 4.05564 -0.374432 1.77523
lowerneck -14.4809 0.303532 -2.14122
upperneck 24.9646 0.919154 0.203046
head 10.3628 0.238839 0.554635
rclavicle -8.44835e-016 -5.1684e-015
rhumerus -25.0947 -15.3346 -78.6232
rradius 24.8527
rwrist 31.7548
rhand -19.3966 -26.014
rfingers 7.12502
rthumb 6.92232 -55.8808
lclavicle -8.44835e-016 -5.1684e-015
lhumerus -22.0218 -3.2083 87.6955
lradius 20.1409
lwrist 4.49818
lhand -23.7209 -3.46141
lfingers 7.12502
lthumb 2.74692 26.5007
rfemur -12.5565 -2.90836 20.262
rtibia 21.2311
rfoot -13.7073 -1.88776
rtoes 12.7936
lfemur -12.4105 7.8448 -18.0389
ltibia 20.2405
lfoot -11.7042 6.17858
ltoes -4.09018
147
root 0.709773 17.5202 -14.0768 6.20273 -2.19229 -1.95848
lowerback -2.09172 -0.463751 0.474066
upperback 2.73787 -0.711803 2.01223
thorax 4.0128 -0.37335 1.76949
lowerneck -14.4703 0.313189 -2.1395
upperneck 24.9027 0.935519 0.187992
head 10.3381 0.245361 0.550779
rclavicle 1.98785e-016 -6.75868e-015
rhumerus -25.0644 -15.3093 -78.6198
rradius 24.8579
rwrist 31.7509
rhand -19.3902 -25.9829
rfingers 7.12502
rthumb 6.92849 -55.8495
lclavicle 1.98785e-016 -6.75868e-015
lhumerus -22.0269 -3.27914 87.6911
lradius 20.189
lwrist 4.5626
lhand -23.7099 -3.44452
lfingers 7.12502
lthumb 2.75751 26.5174
rfemur -12.6765 -2.89639 20.2822
rtibia 21.3174
rfoot -13.7095 -1.88632
rtoes 12.779
lfemur -12.5558 7.85885 -18.0338
ltibia 20.3795
lfoot -11.723 6.19019
ltoes -4.13771
148
root 0.710897 17.5184 -14.0869 6.24048 -2.20177 -1.97496
lowerback -1.98206 -0.464018 0.498765
upperback 2.75792 -0.711844 2.01762
thorax 3.97121 -0.372731 1.76187
lowerneck -14.4602 0.320098 -2.14837
upperneck 24.8289 0.948101 0.182496
head 10.3091 0.250414 0.551559
rclavicle -1.64494e-014 2.8625e-014
rhumerus -25.0291 -15.2938 -78.6142
rradius 24.8618
rwrist 31.7563
rhand -19.386 -25.9453
rfingers 7.12502
rthumb 6.9326 -55.8118
lclavicle -1.64494e-014 2.8625e-014
lhumerus -22.0278 -3.35201 87.6827
lradius 20.2366
lwrist 4.63964
lhand -23.7103 -3.45591
lfingers 7.12502
lthumb 2.75716 26.506
rfemur -12.8088 -2.88905 20.3018
rtibia 21.4156
rfoot -13.7143 -1.8821
rtoes 12.7557
lfemur -12.7174 7.8758 -18.0307
ltibia 20.5359
lfoot -11.7442 6.1983
ltoes -4.19029
